<?xml version="1.0" encoding="UTF-8"?>
<svg width="256px" height="386px" viewBox="0 0 256 386" version="1.1" xmlns="http://www.w3.org/2000/svg" xmlns:xlink="http://www.w3.org/1999/xlink">
    <!-- Generator: Sketch 61.2 (89653) - https://sketch.com -->
    <title>Group 77</title>
    <desc>Created with Sketch.</desc>
    <defs>
        <filter x="-18.1%" y="-11.2%" width="136.1%" height="122.5%" filterUnits="objectBoundingBox" id="filter-1">
            <feOffset dx="0" dy="0" in="SourceAlpha" result="shadowOffsetOuter1"></feOffset>
            <feGaussianBlur stdDeviation="10" in="shadowOffsetOuter1" result="shadowBlurOuter1"></feGaussianBlur>
            <feColorMatrix values="0 0 0 0 0   0 0 0 0 0   0 0 0 0 0  0 0 0 0.3 0" type="matrix" in="shadowBlurOuter1" result="shadowMatrixOuter1"></feColorMatrix>
            <feMerge>
                <feMergeNode in="shadowMatrixOuter1"></feMergeNode>
                <feMergeNode in="SourceGraphic"></feMergeNode>
            </feMerge>
        </filter>
        <path d="M0,0.114397952 L0,337.240723 C0,342.290925 4.09988426,346.409864 9.12657163,346.409864 L9.12657163,346.409864 L206.726176,346.409864 C211.752559,346.409864 215.8529,342.290925 215.8529,337.240723 L215.8529,337.240723 L215.8529,0.114397952 L0,0.114397952 Z" id="path-2"></path>
        <path d="M0,0.114397952 L0,337.240723 C0,342.290925 4.09988426,346.409864 9.12657163,346.409864 L9.12657163,346.409864 L206.726176,346.409864 C211.752559,346.409864 215.8529,342.290925 215.8529,337.240723 L215.8529,337.240723 L215.8529,0.114397952 L0,0.114397952 Z" id="path-4"></path>
        <linearGradient x1="50.0000141%" y1="100%" x2="50.0000141%" y2="-4.00751265e-05%" id="linearGradient-6">
            <stop stop-color="#B5282F" offset="0%"></stop>
            <stop stop-color="#EA1D25" offset="100%"></stop>
        </linearGradient>
        <polygon id="path-7" points="3.04869442e-05 0.114321774 215.8529 0.114321774 215.8529 80.9133732 3.04869442e-05 80.9133732"></polygon>
        <path d="M0,0.113578947 L99.6438331,75.234269 C104.348289,78.7807602 110.597277,78.7810643 115.301885,75.234269 L115.301885,75.234269 L214.945718,0.113578947 L0,0.113578947 Z" id="path-9"></path>
        <linearGradient x1="49.9999894%" y1="-0.000177145287%" x2="49.9999894%" y2="99.999983%" id="linearGradient-11">
            <stop stop-color="#B5282F" offset="0%"></stop>
            <stop stop-color="#EA1D25" offset="100%"></stop>
        </linearGradient>
    </defs>
    <g id="Page-1" stroke="none" stroke-width="1" fill="none" fill-rule="evenodd">
        <g id="lixi-pick" transform="translate(-26.000000, -367.000000)">
            <g id="Group-77" filter="url(#filter-1)" transform="translate(46.000000, 387.000000)">
                <g id="Group-3">
                    <mask id="mask-3" fill="white">
                        <use xlink:href="#path-2"></use>
                    </mask>
                    <g id="Clip-2"></g>
                    <mask id="mask-5" fill="white">
                        <use xlink:href="#path-4"></use>
                    </mask>
                    <g id="Clip-2"></g>
                    <path d="M0,0.114397952 L0,337.240723 C0,342.290925 4.09988426,346.409864 9.12657163,346.409864 L9.12657163,346.409864 L206.726176,346.409864 C211.752559,346.409864 215.8529,342.290925 215.8529,337.240723 L215.8529,337.240723 L215.8529,0.114397952 L0,0.114397952 Z" id="Fill-1" fill="url(#linearGradient-6)" mask="url(#mask-5)"></path>
                </g>
                <g id="Group-73">
                    <path d="M94.4203529,220.234577 C95.9198532,217.624069 98.9699195,216.47365 101.727006,217.279311 C102.411133,214.476965 104.927526,212.396771 107.926526,212.396771 C110.925222,212.396771 113.44192,214.476658 114.125742,217.279311 C116.882676,216.47365 119.9332,217.624069 121.432548,220.234577 C122.932048,222.845392 122.398069,226.076005 120.325109,228.072997 C122.398069,230.069989 122.932048,233.300602 121.432548,235.911569 C119.9332,238.522077 116.882676,239.672344 114.126199,238.866835 C113.44192,241.669489 110.925222,243.749376 107.926526,243.749376 C104.927526,243.749376 102.411133,241.669489 101.727006,238.866835 C98.9699195,239.672344 95.9198532,238.522077 94.4203529,235.911569 C92.9210049,233.300602 93.4546789,230.069989 95.5274862,228.072997 C93.4546789,226.076005 92.9210049,222.845392 94.4203529,220.234577" id="Fill-4" fill="#F5AF32"></path>
                    <path d="M102.544361,218.70261 C104.336994,217.662054 106.555224,218.03286 107.926374,219.470885 C109.297829,218.032248 111.516059,217.662054 113.308692,218.70261 C115.101324,219.742554 115.891241,221.859369 115.337903,223.771933 C117.262543,224.246627 118.690857,225.992175 118.690857,228.072981 C118.690857,230.153481 117.262543,231.89949 115.337903,232.374183 C115.891241,234.286748 115.101324,236.403256 113.308692,237.443812 C111.516059,238.484062 109.297829,238.113256 107.926526,236.675844 C106.555224,238.113256 104.336994,238.484062 102.544361,237.443812 C100.751577,236.403256 99.9616598,234.286748 100.514998,232.374183 C98.5903571,231.89949 97.1618913,230.153481 97.1618913,228.072981 C97.1618913,225.992175 98.5903571,224.246627 100.514998,223.771933 C99.9616598,221.858756 100.751577,219.742554 102.544361,218.70261" id="Fill-6" fill="#FCCD35"></path>
                    <path d="M103.213931,225.404447 C103.395176,225.088648 103.797146,224.980318 104.111162,225.162963 C104.338289,225.294584 104.457036,225.541737 104.437524,225.787818 L107.693378,227.677398 L107.693378,223.906665 C107.471585,223.800632 107.317931,223.573245 107.317931,223.30985 C107.317931,222.945326 107.612282,222.649447 107.974924,222.649447 C108.337719,222.649447 108.631918,222.945326 108.631918,223.30985 C108.631918,223.573245 108.478569,223.800632 108.256776,223.906665 L108.256776,227.677398 L111.513849,225.787205 C111.494185,225.540971 111.569793,225.318794 111.840364,225.161737 C112.110936,225.004681 112.556655,225.087882 112.7379,225.403527 C112.919297,225.719632 112.768082,226.148358 112.497358,226.305568 C112.226939,226.462624 111.997982,226.417423 111.795396,226.277374 L108.538323,228.167568 L111.788231,230.053931 C111.990817,229.913882 112.219774,229.868681 112.490193,230.025124 C112.760917,230.182334 112.912133,230.611979 112.730735,230.927777 C112.54949,231.243729 112.103771,231.326318 111.8332,231.169261 C111.562781,231.012205 111.487478,230.790334 111.506685,230.544406 L108.256776,228.657737 L108.256776,232.438737 C108.478569,232.544769 108.631918,232.721285 108.631918,233.035552 C108.631918,233.349818 108.337719,233.695955 107.974772,233.695955 C107.612282,233.695955 107.317931,233.349818 107.317931,233.035552 C107.317931,232.721285 107.471585,232.544769 107.693378,232.438737 L107.693378,228.657737 L104.444689,230.542874 C104.4642,230.789261 104.345149,231.036721 104.118326,231.168342 C103.804311,231.350681 103.402188,231.24235 103.220943,230.926552 C103.039393,230.61106 103.147317,230.20685 103.461485,230.024511 C103.688308,229.892584 103.960709,229.912963 104.163294,230.052705 L107.411831,228.167568 L104.15613,226.278294 C103.953849,226.418342 103.681143,226.438108 103.45432,226.306487 C103.140152,226.124148 103.032534,225.720552 103.213931,225.404447" id="Fill-8" fill="#FEFEFE"></path>
                    <path d="M100.019204,228.16222 C100.019204,227.797083 100.313555,227.501664 100.67635,227.501664 C100.938385,227.501664 101.164446,227.655809 101.269778,227.879059 L107.49003,227.879059 L104.379752,222.464365 C104.134941,222.483825 103.888912,222.364156 103.757818,222.136156 C103.576573,221.820357 103.684344,221.41676 103.99836,221.234115 C104.312528,221.05193 104.714498,221.159954 104.895896,221.475599 C105.027142,221.703752 105.006868,221.977873 104.867695,222.181357 L107.977516,227.595744 L111.087489,222.181357 C110.948469,221.977873 110.928195,221.703752 111.059441,221.475599 C111.240838,221.159954 111.642504,221.05193 111.956824,221.234115 C112.270992,221.41676 112.378611,221.820357 112.197061,222.136156 C112.066425,222.364156 111.820243,222.483825 111.57528,222.464365 L108.465155,227.879059 L114.685101,227.879059 C114.790433,227.655809 115.016951,227.501664 115.278987,227.501664 C115.641629,227.501664 115.935675,227.797083 115.935675,228.16222 C115.935675,228.526438 115.641629,228.822164 115.278987,228.822164 C115.016951,228.822164 114.790433,228.668019 114.685101,228.445075 L108.465155,228.445075 L111.57528,233.859462 C111.820243,233.840002 112.066425,233.959365 112.197061,234.187978 C112.378611,234.503777 112.270992,234.907373 111.956824,235.090019 C111.642504,235.27251 111.240838,235.163873 111.059441,234.847922 C110.928195,234.619922 110.948469,234.345954 111.087489,234.142777 L107.977516,228.728083 L104.867695,234.142777 C105.007173,234.345954 105.027142,234.619922 104.895896,234.847922 C104.714498,235.163873 104.312528,235.27251 103.99836,235.090019 C103.684344,234.907373 103.576573,234.503777 103.757818,234.187978 C103.888912,233.959365 104.135094,233.840002 104.379904,233.859462 L107.49003,228.445075 L101.269778,228.445075 C101.164446,228.668019 100.938385,228.822164 100.67635,228.822164 C100.313555,228.822164 100.019204,228.526438 100.019204,228.16222" id="Fill-10" fill="#FEFEFE"></path>
                    <path d="M106.802854,226.117008 C107.877519,225.493073 109.252023,225.863573 109.872584,226.943815 C110.492994,228.023597 110.124559,229.405387 109.049894,230.029016 C107.975382,230.652798 106.600878,230.282605 105.980469,229.20221 C105.359907,228.122427 105.728342,226.740637 106.802854,226.117008" id="Fill-12" fill="#FEFEFE"></path>
                    <path d="M64.5650371,231.434419 C65.5523568,229.715685 67.560227,228.958596 69.3752672,229.48891 C69.8257118,227.643612 71.4823723,226.274386 73.4567068,226.274386 C75.4310414,226.274386 77.0875495,227.643612 77.5379941,229.48891 C79.3530343,228.958596 81.3612093,229.715685 82.3483766,231.434419 C83.3355438,233.153459 82.9840294,235.28008 81.6192813,236.594757 C82.9838769,237.909435 83.3355438,240.036056 82.3483766,241.75479 C81.3612093,243.473983 79.3530343,244.230612 77.5379941,243.700298 C77.0875495,245.545902 75.4310414,246.915281 73.4567068,246.915281 C71.4823723,246.915281 69.8258642,245.545902 69.3752672,243.700298 C67.560227,244.230612 65.5523568,243.47337 64.5650371,241.75479 C63.5778699,240.036056 63.9293843,237.909435 65.29398,236.594757 C63.9293843,235.28008 63.5778699,233.153459 64.5650371,231.434419" id="Fill-14" fill="#F5AF32"></path>
                    <path d="M69.9133465,230.42558 C71.0934961,229.740507 72.5538207,229.984749 73.4566916,230.931685 C74.35941,229.984749 75.8197347,229.740507 77.0000367,230.42558 C78.1800339,231.110652 78.7002936,232.503781 78.3359746,233.762991 C79.6028596,234.075419 80.5432294,235.224919 80.5432294,236.594757 C80.5432294,237.964443 79.6028596,239.113943 78.3359746,239.426064 C78.7002936,240.685427 78.1800339,242.079169 77.0000367,242.763475 C75.8197347,243.448548 74.35941,243.204919 73.4566916,242.258136 C72.5541256,243.204919 71.0934961,243.448548 69.9133465,242.763475 C68.7330445,242.079169 68.2132421,240.685427 68.5774086,239.426064 C67.3103712,239.113943 66.3701538,237.964443 66.3701538,236.594757 C66.3701538,235.224919 67.3103712,234.075419 68.5774086,233.762991 C68.2132421,232.503781 68.7330445,231.110652 69.9133465,230.42558" id="Fill-16" fill="#FCCD35"></path>
                    <path d="M70.3541267,234.838008 C70.4736356,234.630081 70.7381098,234.558831 70.9449637,234.678806 C71.0943498,234.765532 71.1727012,234.928105 71.1597442,235.090218 L73.3032813,236.334105 L73.3032813,233.851847 C73.1572488,233.782129 73.0561846,233.632274 73.0561846,233.458976 C73.0561846,233.219331 73.2497767,233.024427 73.4886419,233.024427 C73.7273547,233.024427 73.9210992,233.219331 73.9210992,233.458976 C73.9210992,233.632274 73.820035,233.782129 73.6738501,233.851847 L73.6738501,236.334105 L75.8184542,235.089758 C75.8054972,234.927798 75.855191,234.781774 76.0333872,234.678194 C76.2114309,234.574613 76.5047153,234.629161 76.6240717,234.837395 C76.7435805,235.045169 76.6440406,235.327565 76.4661493,235.431145 C76.2878007,235.534726 76.1368903,235.504847 76.0038148,235.412605 L73.8593632,236.657258 L75.9990893,237.898694 C76.1321649,237.806758 76.2832277,237.776573 76.461119,237.880153 C76.6393152,237.983581 76.7390075,238.266129 76.6196511,238.473903 C76.4999898,238.682137 76.2068579,238.736532 76.0288141,238.633105 C75.8506179,238.529524 75.8009242,238.3835 75.8137287,238.221234 L73.6738501,236.979952 L73.6738501,239.468952 C73.820035,239.538669 73.9210992,239.654968 73.9210992,239.861516 C73.9210992,240.068677 73.7273547,240.296677 73.4886419,240.296677 C73.2497767,240.296677 73.0561846,240.068677 73.0561846,239.861516 C73.0561846,239.654968 73.1572488,239.538669 73.3032813,239.468952 L73.3032813,236.979952 L71.1644697,238.220927 C71.1772742,238.383194 71.0990752,238.545613 70.9495368,238.632185 C70.7426829,238.752774 70.4782086,238.681218 70.3586998,238.473597 C70.2393434,238.265823 70.3102255,237.999823 70.5170795,237.879847 C70.6664655,237.792661 70.846186,237.805839 70.9792615,237.898387 L73.1179207,236.657258 L70.9745361,235.412911 C70.8411557,235.505306 70.6618924,235.518484 70.5125064,235.431758 C70.3056525,235.311782 70.2346179,235.045935 70.3541267,234.838008" id="Fill-18" fill="#FEFEFE"></path>
                    <path d="M68.2510154,236.653381 C68.2510154,236.413123 68.4447599,236.21822 68.6837776,236.21822 C68.8561812,236.21822 69.0048051,236.320269 69.0743153,236.466599 L73.1694741,236.466599 L71.1219709,232.902414 C70.9605426,232.915285 70.7986569,232.836527 70.7122264,232.686212 C70.59287,232.478591 70.6639046,232.212591 70.8707585,232.092462 C71.0776124,231.97218 71.3419342,232.04343 71.4615955,232.251664 C71.5477211,232.401672 71.5346117,232.581865 71.442846,232.715938 L73.4903492,236.28043 L75.5378524,232.715938 C75.4459342,232.581865 75.4329773,232.401672 75.5191029,232.251664 C75.6386117,232.04343 75.903086,231.97218 76.1100923,232.092462 C76.3166414,232.212591 76.3876759,232.478591 76.268472,232.686212 C76.1820415,232.836527 76.0201558,232.915285 75.8590323,232.902414 L73.8113767,236.466599 L77.9060782,236.466599 C77.9755884,236.320269 78.1243647,236.21822 78.2969208,236.21822 C78.5360909,236.21822 78.7293781,236.413123 78.7293781,236.653381 C78.7293781,236.893027 78.5360909,237.088236 78.2969208,237.088236 C78.1243647,237.088236 77.9755884,236.986494 77.9060782,236.839551 L73.8113767,236.839551 L75.8587275,240.404196 C76.019851,240.391325 76.1820415,240.470236 76.268472,240.619938 C76.3876759,240.828172 76.3166414,241.094172 76.1100923,241.214301 C75.903086,241.334277 75.6386117,241.263333 75.5191029,241.055099 C75.4329773,240.905091 75.4459342,240.724285 75.5378524,240.590519 L73.4903492,237.02572 L71.442846,240.590519 C71.5346117,240.724285 71.5477211,240.905091 71.4615955,241.055099 C71.3419342,241.263333 71.0776124,241.334277 70.8707585,241.214301 C70.6639046,241.094172 70.59287,240.828172 70.7122264,240.619938 C70.7986569,240.470236 70.9605426,240.391325 71.1219709,240.404196 L73.1694741,236.839551 L69.0743153,236.839551 C69.0048051,236.986494 68.8561812,237.088236 68.6837776,237.088236 C68.4447599,237.088236 68.2510154,236.893027 68.2510154,236.653381" id="Fill-20" fill="#FEFEFE"></path>
                    <path d="M72.7171698,235.306971 C73.4244669,234.896019 74.3294718,235.140261 74.7378445,235.851076 C75.1465219,236.56235 74.9038459,237.472205 74.1963963,237.88285 C73.4887944,238.293035 72.5839418,238.049406 72.1755692,237.338439 C71.7670442,236.627011 72.0094154,235.717616 72.7171698,235.306971" id="Fill-22" fill="#FEFEFE"></path>
                    <path d="M133.504829,231.434419 C134.491691,229.715685 136.499866,228.958596 138.314906,229.48891 C138.765199,227.643612 140.422164,226.274386 142.396346,226.274386 C144.370376,226.274386 146.026884,227.643612 146.477633,229.48891 C148.292674,228.958596 150.301001,229.715685 151.287711,231.434419 C152.275031,233.153459 151.923364,235.28008 150.558921,236.594757 C151.923364,237.909435 152.275031,240.036056 151.287711,241.75479 C150.301001,243.473983 148.292674,244.230612 146.477633,243.700298 C146.026884,245.545902 144.370376,246.915281 142.396346,246.915281 C140.422164,246.915281 138.765656,245.545902 138.314906,243.700298 C136.499866,244.230612 134.491691,243.47337 133.504829,241.75479 C132.517509,240.036056 132.869176,237.909435 134.233772,236.594757 C132.869176,235.28008 132.517509,233.153459 133.504829,231.434419" id="Fill-24" fill="#F5AF32"></path>
                    <path d="M138.853001,230.42558 C140.033151,229.740507 141.493475,229.984749 142.396346,230.931685 C143.299217,229.984749 144.759542,229.740507 145.939539,230.42558 C147.119688,231.110652 147.639948,232.503781 147.275629,233.762991 C148.542666,234.075419 149.482884,235.224919 149.482884,236.594757 C149.482884,237.964443 148.542666,239.113943 147.275629,239.426064 C147.639948,240.685427 147.119688,242.079169 145.939539,242.763475 C144.759542,243.448548 143.299217,243.204919 142.396346,242.258136 C141.493475,243.204919 140.033151,243.448548 138.853001,242.763475 C137.672851,242.079169 137.152744,240.685427 137.516911,239.426064 C136.249873,239.113943 135.309656,237.964443 135.309656,236.594757 C135.309656,235.224919 136.249873,234.075419 137.516911,233.762991 C137.152744,232.503781 137.672851,231.110652 138.853001,230.42558" id="Fill-26" fill="#FCCD35"></path>
                    <path d="M139.293629,234.838008 C139.412985,234.630081 139.677764,234.558831 139.884313,234.678806 C140.033852,234.765532 140.112508,234.928105 140.099399,235.090218 L142.242936,236.334105 L142.242936,233.851847 C142.096751,233.782129 141.995534,233.632274 141.995534,233.458976 C141.995534,233.219331 142.189584,233.024427 142.428144,233.024427 C142.666857,233.024427 142.860906,233.219331 142.860906,233.458976 C142.860906,233.632274 142.759689,233.782129 142.613505,233.851847 L142.613505,236.334105 L144.758261,235.089758 C144.745304,234.927798 144.794845,234.781774 144.972889,234.678194 C145.151085,234.574613 145.44437,234.629161 145.563574,234.837395 C145.683387,235.045169 145.583848,235.327565 145.405651,235.431145 C145.227608,235.534726 145.076697,235.504847 144.943469,235.412605 L142.798713,236.657258 L144.938896,237.898694 C145.071972,237.806758 145.22273,237.776573 145.400926,237.880153 C145.579122,237.983581 145.678814,238.266129 145.559001,238.473903 C145.439644,238.682137 145.146512,238.736532 144.968316,238.633105 C144.790272,238.529524 144.740579,238.3835 144.753078,238.221234 L142.613505,236.979952 L142.613505,239.468952 C142.759689,239.538669 142.860906,239.654968 142.860906,239.861516 C142.860906,240.068677 142.666857,240.296677 142.428144,240.296677 C142.189584,240.296677 141.995534,240.068677 141.995534,239.861516 C141.995534,239.654968 142.096751,239.538669 142.242936,239.468952 L142.242936,236.979952 L140.103972,238.220927 C140.117081,238.383194 140.038577,238.545613 139.889344,238.632185 C139.682337,238.752774 139.417558,238.681218 139.298354,238.473597 C139.178998,238.265823 139.250032,237.999823 139.456582,237.879847 C139.606272,237.792661 139.785688,237.805839 139.918916,237.898387 L142.05727,236.657258 L139.914191,235.412911 C139.780963,235.505306 139.601699,235.518484 139.452008,235.431758 C139.245459,235.311782 139.174425,235.045935 139.293629,234.838008" id="Fill-28" fill="#FEFEFE"></path>
                    <path d="M137.190502,236.653381 C137.190502,236.413123 137.384247,236.21822 137.623264,236.21822 C137.795973,236.21822 137.944597,236.320269 138.013955,236.466599 L142.108961,236.466599 L140.061305,232.902414 C139.900334,232.915285 139.738144,232.836527 139.652018,232.686212 C139.532662,232.478591 139.603696,232.212591 139.810398,232.092462 C140.017099,231.97218 140.281726,232.04343 140.401082,232.251664 C140.487208,232.401672 140.474251,232.581865 140.382638,232.715938 L142.429836,236.28043 L144.477187,232.715938 C144.385573,232.581865 144.372464,232.401672 144.458742,232.251664 C144.577946,232.04343 144.842573,231.97218 145.049884,232.092462 C145.256433,232.212591 145.327468,232.478591 145.207806,232.686212 C145.121528,232.836527 144.959947,232.915285 144.798519,232.902414 L142.750864,236.466599 L146.84587,236.466599 C146.915075,236.320269 147.064156,236.21822 147.236408,236.21822 C147.475578,236.21822 147.66917,236.413123 147.66917,236.653381 C147.66917,236.893027 147.475578,237.088236 147.236408,237.088236 C147.064156,237.088236 146.915075,236.986494 146.84587,236.839551 L142.750864,236.839551 L144.798062,240.404196 C144.95949,240.391325 145.121528,240.470236 145.207806,240.619938 C145.327468,240.828172 145.256433,241.094172 145.049884,241.214301 C144.842573,241.334277 144.577946,241.263333 144.458742,241.055099 C144.372464,240.905091 144.385573,240.724285 144.477187,240.590519 L142.429836,237.02572 L140.382638,240.590519 C140.474251,240.724285 140.487208,240.905091 140.401082,241.055099 C140.281726,241.263333 140.017099,241.334277 139.810398,241.214301 C139.603696,241.094172 139.532662,240.828172 139.652018,240.619938 C139.738144,240.470236 139.900334,240.391325 140.06161,240.404196 L142.108961,236.839551 L138.013955,236.839551 C137.944597,236.986494 137.795973,237.088236 137.623264,237.088236 C137.384247,237.088236 137.190502,236.893027 137.190502,236.653381" id="Fill-30" fill="#FEFEFE"></path>
                    <path d="M141.656809,235.306971 C142.363954,234.896019 143.268806,235.140261 143.677636,235.851076 C144.086161,236.56235 143.843638,237.472205 143.135731,237.88285 C142.428586,238.293035 141.523734,238.049406 141.115361,237.338439 C140.706683,236.627011 140.948902,235.717616 141.656809,235.306971" id="Fill-32" fill="#FEFEFE"></path>
                    <path d="M35.9412415,168.597021 L33.4425315,168.597021 L33.4425315,171.717158 C33.4425315,171.862263 33.3664666,171.972739 33.2149465,172.048585 C33.0631215,172.124892 32.898492,172.162892 32.7207531,172.162892 C32.535545,172.162892 32.3689338,172.124892 32.2210721,172.048585 C32.0729056,171.972739 31.9989747,171.862263 31.9989747,171.717158 L31.9989747,164.65069 C31.9989747,164.498384 32.0729056,164.387908 32.2210721,164.31911 C32.3689338,164.250158 32.535545,164.215682 32.7207531,164.215682 C32.898492,164.215682 33.0631215,164.250158 33.2149465,164.31911 C33.3664666,164.387908 33.4425315,164.498384 33.4425315,164.65069 L33.4425315,167.488279 L35.9412415,167.488279 L35.9412415,164.65069 C35.9412415,164.498384 36.0150199,164.387908 36.1631865,164.31911 C36.3112006,164.250158 36.4778117,164.215682 36.662715,164.215682 C36.8404539,164.215682 37.0052359,164.250158 37.1570608,164.31911 C37.3087334,164.387908 37.3847983,164.498384 37.3847983,164.65069 L37.3847983,171.717158 C37.3847983,171.862263 37.3087334,171.972739 37.1570608,172.048585 C37.0052359,172.124892 36.8404539,172.162892 36.662715,172.162892 C36.4778117,172.162892 36.3112006,172.124892 36.1631865,172.048585 C36.0150199,171.972739 35.9412415,171.862263 35.9412415,171.717158 L35.9412415,168.597021 Z" id="Fill-34" fill="#FCCD35"></path>
                    <path d="M44.4250416,169.325441 L43.4589104,165.987877 L42.4926267,169.325441 L44.4250416,169.325441 Z M41.282295,172.16303 C41.1859562,172.16303 41.0841299,172.148473 40.9769682,172.11936 C40.8695018,172.090554 40.7714862,172.050715 40.6826168,171.999844 C40.5938998,171.94928 40.5196641,171.887683 40.4605194,171.815207 C40.4013747,171.742731 40.3718024,171.662901 40.3718024,171.575869 C40.3718024,171.561619 40.3789668,171.525457 40.3940579,171.467231 L42.5371376,164.628917 C42.588813,164.46236 42.7037488,164.340852 42.8814876,164.264699 C43.0590741,164.188699 43.2515992,164.150699 43.4589104,164.150699 C43.673386,164.150699 43.8697219,164.188699 44.0473084,164.264699 C44.2250473,164.340852 44.3398306,164.46236 44.391506,164.628917 L46.535043,171.467231 C46.5496768,171.525457 46.5569936,171.561619 46.5569936,171.575869 C46.5569936,171.662901 46.5274213,171.741046 46.4681242,171.809691 C46.4089795,171.878796 46.3348963,171.940086 46.2460268,171.994328 C46.1571574,172.04857 46.0591418,172.090554 45.9519802,172.11936 C45.8445138,172.148473 45.7426874,172.16303 45.6466535,172.16303 C45.52059,172.16303 45.4151052,172.141272 45.3300466,172.097909 C45.244988,172.054393 45.1873677,171.981917 45.1579478,171.880481 L44.735856,170.434336 L42.1927876,170.434336 L41.7710007,171.880481 C41.7412759,171.981917 41.6839605,172.054393 41.5989019,172.097909 C41.5135385,172.141272 41.4080536,172.16303 41.282295,172.16303 L41.282295,172.16303 Z" id="Fill-36" fill="#FCCD35"></path>
                    <path d="M50.9879204,165.455141 L50.9879204,168.086181 L52.2316353,168.086181 C52.5942775,168.086181 52.8793304,167.984593 53.0866416,167.781722 C53.2938004,167.578851 53.3977609,167.263665 53.3977609,166.836012 L53.3977609,166.705464 C53.3977609,166.27781 53.2938004,165.962625 53.0866416,165.759448 C52.8793304,165.55673 52.5942775,165.455141 52.2316353,165.455141 L50.9879204,165.455141 Z M49.5442112,164.650706 C49.5442112,164.534714 49.5923805,164.433125 49.6887193,164.346246 C49.7846007,164.259214 49.9178287,164.215698 50.0884031,164.215698 L52.3203523,164.215698 C52.6758301,164.215698 53.0050891,164.259214 53.3088915,164.346246 C53.6122366,164.433125 53.8788449,164.574399 54.1082591,164.770222 C54.3378258,164.966044 54.5172415,165.219786 54.6469634,165.531294 C54.7763805,165.842956 54.8411653,166.219891 54.8411653,166.661794 L54.8411653,166.727222 C54.8411653,167.176633 54.7745513,167.557246 54.6413234,167.868754 C54.5082478,168.180415 54.3230397,168.433851 54.0861561,168.629827 C53.8491201,168.825496 53.5715365,168.968609 53.2532528,169.059012 C52.9348167,169.150028 52.5942775,169.194923 52.2316353,169.194923 L50.9879204,169.194923 L50.9879204,171.717173 C50.9879204,171.862125 50.9118555,171.972754 50.7601829,172.048601 C50.6083579,172.124907 50.4437284,172.162907 50.266142,172.162907 C50.0809338,172.162907 49.9143227,172.124907 49.7663085,172.048601 C49.618142,171.972754 49.5442112,171.862125 49.5442112,171.717173 L49.5442112,164.650706 Z" id="Fill-38" fill="#FCCD35"></path>
                    <path d="M59.3938721,165.455141 L59.3938721,168.086181 L60.637587,168.086181 C61.0003817,168.086181 61.2854346,167.984593 61.4928982,167.781722 C61.6999046,167.578851 61.8038651,167.263665 61.8038651,166.836012 L61.8038651,166.705464 C61.8038651,166.27781 61.6999046,165.962625 61.4928982,165.759448 C61.2854346,165.55673 61.0003817,165.455141 60.637587,165.455141 L59.3938721,165.455141 Z M57.9503153,164.650706 C57.9503153,164.534714 57.9984847,164.433125 58.0948234,164.346246 C58.1908573,164.259214 58.3239328,164.215698 58.4946597,164.215698 L60.7264565,164.215698 C61.0819342,164.215698 61.4111932,164.259214 61.7149956,164.346246 C62.0183407,164.433125 62.284949,164.574399 62.5143633,164.770222 C62.74393,164.966044 62.9233457,165.219786 63.0530676,165.531294 C63.1823323,165.842956 63.247117,166.219891 63.247117,166.661794 L63.247117,166.727222 C63.247117,167.176633 63.1806555,167.557246 63.04758,167.868754 C62.9141996,168.180415 62.7291438,168.433851 62.4921078,168.629827 C62.2552243,168.825496 61.9774882,168.968609 61.6592045,169.059012 C61.3409208,169.150028 61.0003817,169.194923 60.637587,169.194923 L59.3938721,169.194923 L59.3938721,171.717173 C59.3938721,171.862125 59.3179596,171.972754 59.1664395,172.048601 C59.0144621,172.124907 58.8498326,172.162907 58.6722462,172.162907 C58.487038,172.162907 58.3204268,172.124907 58.1724127,172.048601 C58.0243986,171.972754 57.9503153,171.862125 57.9503153,171.717173 L57.9503153,164.650706 Z" id="Fill-40" fill="#FCCD35"></path>
                    <path d="M68.1554388,168.977542 C68.1554388,168.919776 68.1443111,168.872429 68.122208,168.836268 L65.8234924,164.944179 C65.8013894,164.893615 65.7901092,164.846268 65.7901092,164.802905 C65.7901092,164.715873 65.8215108,164.636195 65.8846188,164.563566 C65.9474219,164.491244 66.0271452,164.429647 66.1233315,164.378776 C66.2193654,164.328058 66.3231735,164.288219 66.4342984,164.25926 C66.5452709,164.230453 66.6489265,164.215744 66.7452652,164.215744 C66.8634021,164.215744 66.9542532,164.237348 67.0172088,164.281171 C67.0800119,164.324534 67.1374797,164.396856 67.1893076,164.498445 L68.8772172,167.64034 L70.5764071,164.498445 C70.6280824,164.404211 70.6835687,164.333574 70.7430182,164.286381 C70.8020104,164.23934 70.8908799,164.215744 71.0094741,164.215744 C71.1056604,164.215744 71.209316,164.230453 71.3204409,164.25926 C71.431261,164.288219 71.5349166,164.328058 71.6312553,164.378776 C71.7272892,164.429647 71.8070126,164.491244 71.8701205,164.563566 C71.9327712,164.636195 71.9643252,164.715873 71.9643252,164.802905 C71.9643252,164.817461 71.9623435,164.837227 71.9588375,164.862663 C71.9551791,164.888252 71.9457282,164.915219 71.9312469,164.944179 L69.6435066,168.836268 C69.6139342,168.879937 69.5991481,168.926977 69.5991481,168.977542 L69.5991481,171.717219 C69.5991481,171.862171 69.5250648,171.9728 69.3770507,172.048647 C69.2288841,172.124953 69.062273,172.162953 68.8772172,172.162953 C68.6994783,172.162953 68.5346964,172.124953 68.3831763,172.048647 C68.2313513,171.9728 68.1554388,171.862171 68.1554388,171.717219 L68.1554388,168.977542 Z" id="Fill-42" fill="#FCCD35"></path>
                    <path d="M77.8052731,172.162953 C77.6423204,172.162953 77.4962879,172.124953 77.3667184,172.048647 C77.2369965,171.9728 77.1723641,171.862171 77.1723641,171.717219 L77.1723641,164.650752 C77.1723641,164.498445 77.246295,164.387969 77.3944615,164.319171 C77.5424757,164.250066 77.7090868,164.215744 77.8939901,164.215744 C78.071729,164.215744 78.2365109,164.250066 78.3883359,164.319171 C78.539856,164.387969 78.615921,164.498445 78.615921,164.650752 L78.615921,170.92351 L81.3256006,170.92351 C81.4733098,170.92351 81.5826055,170.987098 81.6530303,171.113816 C81.7233028,171.240687 81.7586676,171.383953 81.7586676,171.543308 C81.7586676,171.695308 81.7233028,171.836735 81.6530303,171.967284 C81.5826055,172.097832 81.4733098,172.162953 81.3256006,172.162953 L77.8052731,172.162953 Z" id="Fill-44" fill="#FCCD35"></path>
                    <path d="M88.6211416,164.650706 C88.6211416,164.498399 88.69492,164.387923 88.843239,164.319125 C88.9912531,164.250173 89.1578642,164.215698 89.34292,164.215698 C89.5205064,164.215698 89.6851359,164.250173 89.8371133,164.319125 C89.9887859,164.387923 90.0648508,164.498399 90.0648508,164.650706 L90.0648508,169.738569 C90.0648508,170.195335 89.9962552,170.581157 89.8592164,170.896496 C89.7221776,171.211681 89.5334634,171.467109 89.2929214,171.662931 C89.052227,171.858448 88.7691557,172.00202 88.4434027,172.09227 C88.1176497,172.18298 87.7696412,172.228181 87.3995297,172.228181 C87.0221013,172.228181 86.6724161,172.18298 86.3501691,172.09227 C86.0280745,172.00202 85.7468325,171.858448 85.5062905,171.662931 C85.2654436,171.467109 85.0768819,171.211681 84.9399955,170.896496 C84.8028042,170.581157 84.7345135,170.195335 84.7345135,169.738569 L84.7345135,164.650706 C84.7345135,164.498399 84.8082919,164.387923 84.9566109,164.319125 C85.104625,164.250173 85.2710837,164.215698 85.4562919,164.215698 C85.6338783,164.215698 85.7985078,164.250173 85.9503328,164.319125 C86.1021578,164.387923 86.1782227,164.498399 86.1782227,164.650706 L86.1782227,169.738569 C86.1782227,170.166375 86.2853843,170.481714 86.5000124,170.684585 C86.7146405,170.887456 87.0144796,170.988738 87.3995297,170.988738 C87.7844274,170.988738 88.0842665,170.887456 88.299047,170.684585 C88.5138275,170.481714 88.6211416,170.166375 88.6211416,169.738569 L88.6211416,164.650706 Z" id="Fill-46" fill="#FCCD35"></path>
                    <path d="M98.2489338,172.162953 C98.0785118,172.162953 97.9213516,172.130316 97.7768435,172.065195 C97.6324878,171.999921 97.5120644,171.884082 97.4160305,171.717219 L95.0284454,167.34676 L95.0284454,171.717219 C95.0284454,171.862171 94.9523805,171.9728 94.8008604,172.048647 C94.6490354,172.124953 94.4842535,172.162953 94.306667,172.162953 C94.1216113,172.162953 93.9550001,172.124953 93.8068336,172.048647 C93.6589719,171.9728 93.5847362,171.862171 93.5847362,171.717219 L93.5847362,164.661477 C93.5847362,164.509324 93.6589719,164.396856 93.8068336,164.324534 C93.9550001,164.252211 94.1216113,164.215744 94.306667,164.215744 C94.439895,164.215744 94.5545259,164.224784 94.6508646,164.243018 C94.747051,164.261098 94.8342436,164.297413 94.9116805,164.351655 C94.989727,164.40605 95.0653347,164.48205 95.1395704,164.580115 C95.2135012,164.677719 95.2950538,164.806429 95.3839232,164.965937 L97.527003,169.020905 L97.527003,164.650752 C97.527003,164.498445 97.6009338,164.387969 97.7492528,164.319171 C97.8971145,164.250066 98.0637256,164.215744 98.2489338,164.215744 C98.4265203,164.215744 98.5911498,164.250066 98.7431272,164.319171 C98.8944948,164.387969 98.9705598,164.498445 98.9705598,164.650752 L98.9705598,171.717219 C98.9705598,171.862171 98.8944948,171.9728 98.7431272,172.048647 C98.5911498,172.124953 98.4265203,172.162953 98.2489338,172.162953" id="Fill-48" fill="#FCCD35"></path>
                    <path d="M106.01091,169.325441 L105.044931,165.987877 L104.078647,169.325441 L106.01091,169.325441 Z M102.868316,172.16303 C102.771977,172.16303 102.67015,172.148473 102.562836,172.11936 C102.455522,172.090554 102.357354,172.050715 102.268637,171.999844 C102.179768,171.94928 102.105532,171.887683 102.04654,171.815207 C101.987243,171.742731 101.957671,171.662901 101.957671,171.575869 C101.957671,171.561619 101.964987,171.525457 101.979926,171.467231 L104.123158,164.628917 C104.174681,164.46236 104.289769,164.340852 104.467356,164.264699 C104.64479,164.188699 104.837467,164.150699 105.044931,164.150699 C105.259559,164.150699 105.45559,164.188699 105.633329,164.264699 C105.810915,164.340852 105.925699,164.46236 105.977679,164.628917 L108.120759,171.467231 C108.135545,171.525457 108.142862,171.561619 108.142862,171.575869 C108.142862,171.662901 108.113289,171.741046 108.054297,171.809691 C107.994848,171.878796 107.920917,171.940086 107.831895,171.994328 C107.743178,172.04857 107.645162,172.090554 107.538001,172.11936 C107.430534,172.148473 107.328708,172.16303 107.232674,172.16303 C107.106458,172.16303 107.000821,172.141272 106.915915,172.097909 C106.830704,172.054393 106.773236,171.981917 106.743968,171.880481 L106.321877,170.434336 L103.778961,170.434336 L103.356869,171.880481 C103.327297,171.981917 103.269829,172.054393 103.18477,172.097909 C103.099407,172.141272 102.994074,172.16303 102.868316,172.16303 L102.868316,172.16303 Z" id="Fill-50" fill="#FCCD35"></path>
                    <path d="M112.573789,165.455141 L112.573789,167.77069 L113.7954,167.77069 C114.15789,167.77069 114.446754,167.685649 114.66123,167.515262 C114.876163,167.345028 114.983782,167.046085 114.983782,166.618431 C114.983782,166.190778 114.876163,165.889996 114.66123,165.715931 C114.446754,165.54202 114.15789,165.455141 113.7954,165.455141 L112.573789,165.455141 Z M111.130232,164.650706 C111.130232,164.534714 111.172913,164.433125 111.257972,164.346246 C111.343031,164.259214 111.455527,164.215698 111.596834,164.215698 L113.7954,164.215698 C114.15789,164.215698 114.498582,164.253698 114.817323,164.329851 C115.135149,164.406004 115.414867,164.53119 115.655409,164.705101 C115.895951,164.879012 116.084665,165.110996 116.221856,165.400899 C116.35859,165.690649 116.427033,166.053028 116.427033,166.487883 C116.427033,167.111512 116.288318,167.59877 116.010734,167.950117 C115.733151,168.301923 115.387124,168.53927 114.972349,168.662464 L116.427033,171.30423 C116.449441,171.33319 116.464228,171.363988 116.471544,171.396319 C116.478709,171.429262 116.48252,171.456383 116.48252,171.478141 C116.48252,171.56502 116.454777,171.653891 116.39929,171.744601 C116.343804,171.835157 116.273532,171.914835 116.188473,171.98348 C116.103262,172.052738 116.006923,172.108665 115.899457,172.152335 C115.792295,172.195698 115.686963,172.217456 115.583002,172.217456 C115.479499,172.217456 115.384837,172.18819 115.299931,172.13027 C115.214873,172.072657 115.142618,171.989149 115.083321,171.880512 L113.506689,168.880044 L112.573789,168.880044 L112.573789,171.717173 C112.573789,171.862125 112.499858,171.972754 112.351844,172.048601 C112.203525,172.124907 112.037066,172.162907 111.85201,172.162907 C111.674424,172.162907 111.509489,172.124907 111.357664,172.048601 C111.205839,171.972754 111.130232,171.862125 111.130232,171.717173 L111.130232,164.650706 Z" id="Fill-52" fill="#FCCD35"></path>
                    <path d="M126.565482,172.162953 C126.394908,172.162953 126.238052,172.130316 126.093544,172.065195 C125.949036,171.999921 125.828765,171.884082 125.732731,171.717219 L123.345299,167.34676 L123.345299,171.717219 C123.345299,171.862171 123.269234,171.9728 123.117256,172.048647 C122.965736,172.124953 122.800802,172.162953 122.62352,172.162953 C122.438159,172.162953 122.271548,172.124953 122.123687,172.048647 C121.97552,171.9728 121.901589,171.862171 121.901589,171.717219 L121.901589,164.661477 C121.901589,164.509324 121.97552,164.396856 122.123687,164.324534 C122.271548,164.252211 122.438159,164.215744 122.62352,164.215744 C122.756443,164.215744 122.871227,164.224784 122.967565,164.243018 C123.063752,164.261098 123.150944,164.297413 123.228381,164.351655 C123.306275,164.40605 123.381883,164.48205 123.456119,164.580115 C123.530049,164.677719 123.611602,164.806429 123.700471,164.965937 L125.843704,169.020905 L125.843704,164.650752 C125.843704,164.498445 125.917787,164.387969 126.065801,164.319171 C126.213815,164.250066 126.380426,164.215744 126.565482,164.215744 C126.743068,164.215744 126.90785,164.250066 127.059523,164.319171 C127.2115,164.387969 127.287108,164.498445 127.287108,164.650752 L127.287108,171.717219 C127.287108,171.862171 127.2115,171.9728 127.059523,172.048647 C126.90785,172.124953 126.743068,172.162953 126.565482,172.162953" id="Fill-54" fill="#FCCD35"></path>
                    <path d="M132.284452,167.62963 L133.972209,167.62963 C134.120223,167.62963 134.23333,167.687702 134.311071,167.803541 C134.388661,167.919533 134.427684,168.049928 134.427684,168.194727 C134.427684,168.318227 134.39049,168.439275 134.316864,168.558944 C134.242628,168.678614 134.127845,168.738372 133.972209,168.738372 L132.284452,168.738372 L132.284452,170.923525 L135.427046,170.923525 C135.57506,170.923525 135.688167,170.987114 135.765756,171.113831 C135.84365,171.240702 135.882368,171.387493 135.882368,171.554356 C135.882368,171.69946 135.845327,171.836751 135.771548,171.967299 C135.69716,172.097848 135.582682,172.162969 135.427046,172.162969 L131.473804,172.162969 C131.310851,172.162969 131.164514,172.124969 131.035097,172.048662 C130.905375,171.972815 130.840742,171.862186 130.840742,171.717235 L130.840742,164.661493 C130.840742,164.516694 130.905375,164.406065 131.035097,164.329912 C131.164514,164.253759 131.310851,164.215759 131.473804,164.215759 L135.427046,164.215759 C135.582682,164.215759 135.69716,164.281033 135.771548,164.411275 C135.845327,164.541977 135.882368,164.679727 135.882368,164.824525 C135.882368,164.991541 135.84365,165.138025 135.765756,165.264896 C135.688167,165.391767 135.57506,165.455202 135.427046,165.455202 L132.284452,165.455202 L132.284452,167.62963 Z" id="Fill-56" fill="#FCCD35"></path>
                    <path d="M145.76555,171.749673 C145.705948,171.916689 145.588116,172.03789 145.410224,172.114197 C145.232486,172.190044 145.036302,172.228197 144.821826,172.228197 C144.61421,172.228197 144.418027,172.190044 144.233124,172.114197 C144.048068,172.03789 143.936943,171.916689 143.899901,171.749673 L143.189251,168.814479 L142.467472,171.749673 C142.430126,171.916689 142.319306,172.03789 142.13425,172.114197 C141.949347,172.190044 141.753011,172.228197 141.545547,172.228197 C141.330766,172.228197 141.133059,172.190044 140.951814,172.114197 C140.770264,172.03789 140.653347,171.916689 140.601824,171.749673 L138.403105,164.911665 C138.388167,164.867995 138.381002,164.824632 138.381002,164.781116 C138.381002,164.701592 138.410422,164.627124 138.469567,164.558173 C138.528864,164.489527 138.6031,164.429769 138.691969,164.378898 C138.780838,164.328027 138.878701,164.288189 138.986016,164.259229 C139.09333,164.230423 139.198814,164.215713 139.302622,164.215713 C139.413747,164.215713 139.513592,164.237471 139.602462,164.28114 C139.691331,164.324503 139.750323,164.396979 139.780048,164.498415 L141.534724,170.390866 L142.4786,166.607568 C142.515641,166.470124 142.602529,166.370374 142.739721,166.308624 C142.876454,166.247027 143.026145,166.216382 143.189251,166.216382 C143.344582,166.216382 143.490919,166.247027 143.62811,166.308624 C143.764692,166.370374 143.851884,166.470124 143.888773,166.607568 L144.832649,170.390866 L146.587478,164.498415 C146.616745,164.396979 146.676347,164.324503 146.765217,164.28114 C146.853781,164.237471 146.953778,164.215713 147.064446,164.215713 C147.168406,164.215713 147.273891,164.230423 147.381053,164.259229 C147.488672,164.288189 147.58684,164.328027 147.675404,164.378898 C147.764426,164.429769 147.83851,164.489527 147.897654,164.558173 C147.956646,164.627124 147.986524,164.701592 147.986524,164.781116 C147.986524,164.824632 147.978902,164.867995 147.964268,164.911665 L145.76555,171.749673 Z" id="Fill-58" fill="#FCCD35"></path>
                    <path d="M154.993506,168.977542 C154.993506,168.919776 154.982226,168.872429 154.960123,168.836268 L152.661407,164.944179 C152.639304,164.893615 152.628024,164.846268 152.628024,164.802905 C152.628024,164.715873 152.659578,164.636195 152.722686,164.563566 C152.785336,164.491244 152.864907,164.429647 152.961246,164.378776 C153.05728,164.328058 153.161088,164.288219 153.27206,164.25926 C153.383185,164.230453 153.486841,164.215744 153.58318,164.215744 C153.701469,164.215744 153.79232,164.237348 153.855123,164.281171 C153.918079,164.324534 153.975547,164.396856 154.027222,164.498445 L155.715132,167.64034 L157.414322,164.498445 C157.465844,164.404211 157.521483,164.333574 157.58078,164.286381 C157.64023,164.23934 157.728794,164.215744 157.847389,164.215744 C157.943727,164.215744 158.04723,164.230453 158.158355,164.25926 C158.269175,164.288219 158.372983,164.328058 158.469322,164.378776 C158.565356,164.429647 158.645079,164.491244 158.708035,164.563566 C158.770533,164.636195 158.802392,164.715873 158.802392,164.802905 C158.802392,164.817461 158.80041,164.837227 158.7966,164.862663 C158.793094,164.888252 158.783643,164.915219 158.769161,164.944179 L156.481421,168.836268 C156.451544,168.879937 156.43691,168.926977 156.43691,168.977542 L156.43691,171.717219 C156.43691,171.862171 156.362827,171.9728 156.214965,172.048647 C156.066951,172.124953 155.900035,172.162953 155.715132,172.162953 C155.537545,172.162953 155.372763,172.124953 155.221091,172.048647 C155.069418,171.9728 154.993506,171.862171 154.993506,171.717219 L154.993506,168.977542 Z" id="Fill-60" fill="#FCCD35"></path>
                    <path d="M163.233029,167.62963 L164.920939,167.62963 C165.068953,167.62963 165.181907,167.687702 165.259649,167.803541 C165.337238,167.919533 165.376414,168.049928 165.376414,168.194727 C165.376414,168.318227 165.338762,168.439275 165.265136,168.558944 C165.191053,168.678614 165.07627,168.738372 164.920939,168.738372 L163.233029,168.738372 L163.233029,170.923525 L166.375471,170.923525 C166.523638,170.923525 166.636592,170.987114 166.714181,171.113831 C166.79238,171.240702 166.830946,171.387493 166.830946,171.554356 C166.830946,171.69946 166.793904,171.836751 166.719973,171.967299 C166.645738,172.097848 166.530954,172.162969 166.375471,172.162969 L162.422229,172.162969 C162.259276,172.162969 162.113091,172.124969 161.983827,172.048662 C161.853952,171.972815 161.78932,171.862186 161.78932,171.717235 L161.78932,164.661493 C161.78932,164.516694 161.853952,164.406065 161.983827,164.329912 C162.113091,164.253759 162.259276,164.215759 162.422229,164.215759 L166.375471,164.215759 C166.530954,164.215759 166.645738,164.281033 166.719973,164.411275 C166.793904,164.541977 166.830946,164.679727 166.830946,164.824525 C166.830946,164.991541 166.79238,165.138025 166.714181,165.264896 C166.636592,165.391767 166.523638,165.455202 166.375471,165.455202 L163.233029,165.455202 L163.233029,167.62963 Z" id="Fill-62" fill="#FCCD35"></path>
                    <path d="M173.38259,169.325441 L172.416459,165.987877 L171.450023,169.325441 L173.38259,169.325441 Z M170.239844,172.16303 C170.143505,172.16303 170.041831,172.148473 169.934364,172.11936 C169.82705,172.090554 169.728882,172.050715 169.639861,171.999844 C169.551601,171.94928 169.47706,171.887683 169.417916,171.815207 C169.358771,171.742731 169.329199,171.662901 169.329199,171.575869 C169.329199,171.561619 169.336363,171.525457 169.351454,171.467231 L171.494686,164.628917 C171.546209,164.46236 171.661297,164.340852 171.838884,164.264699 C172.016318,164.188699 172.208995,164.150699 172.416459,164.150699 C172.630935,164.150699 172.827118,164.188699 173.004857,164.264699 C173.182596,164.340852 173.297227,164.46236 173.349055,164.628917 L175.492592,171.467231 C175.507073,171.525457 175.51439,171.561619 175.51439,171.575869 C175.51439,171.662901 175.484818,171.741046 175.425825,171.809691 C175.366376,171.878796 175.292445,171.940086 175.203575,171.994328 C175.114706,172.04857 175.01669,172.090554 174.909529,172.11936 C174.802215,172.148473 174.700236,172.16303 174.60405,172.16303 C174.478139,172.16303 174.372654,172.141272 174.287595,172.097909 C174.202384,172.054393 174.144916,171.981917 174.115496,171.880481 L173.693405,170.434336 L171.150641,170.434336 L170.728549,171.880481 C170.698672,171.981917 170.641204,172.054393 170.556146,172.097909 C170.471087,172.141272 170.365602,172.16303 170.239844,172.16303 L170.239844,172.16303 Z" id="Fill-64" fill="#FCCD35"></path>
                    <path d="M179.945317,165.455141 L179.945317,167.77069 L181.166928,167.77069 C181.529723,167.77069 181.81813,167.685649 182.033215,167.515262 C182.247691,167.345028 182.355005,167.046085 182.355005,166.618431 C182.355005,166.190778 182.247691,165.889996 182.033215,165.715931 C181.81813,165.54202 181.529723,165.455141 181.166928,165.455141 L179.945317,165.455141 Z M178.50176,164.650706 C178.50176,164.534714 178.544441,164.433125 178.6295,164.346246 C178.714559,164.259214 178.827665,164.215698 178.968058,164.215698 L181.166928,164.215698 C181.529723,164.215698 181.869957,164.253698 182.188546,164.329851 C182.50683,164.406004 182.785938,164.53119 183.026937,164.705101 C183.267479,164.879012 183.456041,165.110996 183.593232,165.400899 C183.730118,165.690649 183.798561,166.053028 183.798561,166.487883 C183.798561,167.111512 183.659846,167.59877 183.382262,167.950117 C183.104679,168.301923 182.758499,168.53927 182.343877,168.662464 L183.798561,171.30423 C183.820969,171.33319 183.835756,171.363988 183.843072,171.396319 C183.850389,171.429262 183.854048,171.456383 183.854048,171.478141 C183.854048,171.56502 183.826457,171.653891 183.770818,171.744601 C183.71518,171.835157 183.64506,171.914835 183.560001,171.98348 C183.474638,172.052738 183.378451,172.108665 183.270985,172.152335 C183.163823,172.195698 183.058491,172.217456 182.95453,172.217456 C182.851027,172.217456 182.75667,172.18819 182.671612,172.13027 C182.586401,172.072657 182.514147,171.989149 182.455154,171.880512 L180.878217,168.880044 L179.945317,168.880044 L179.945317,171.717173 C179.945317,171.862125 179.871233,171.972754 179.723372,172.048601 C179.575053,172.124907 179.408594,172.162907 179.223386,172.162907 C179.046104,172.162907 178.881017,172.124907 178.729497,172.048601 C178.57752,171.972754 178.50176,171.862125 178.50176,171.717173 L178.50176,164.650706 Z" id="Fill-66" fill="#FCCD35"></path>
                    <path d="M140.55434,185.051588 C140.646106,185.051588 140.713787,185.092806 140.757383,185.174015 C140.80098,185.255225 140.822778,185.341644 140.822778,185.433273 C140.822778,185.534402 140.79976,185.625265 140.754182,185.703717 C140.708147,185.782935 140.641685,185.822467 140.55434,185.822467 L139.598117,185.822467 L139.598117,189.594886 C139.598117,189.682685 139.553454,189.749491 139.463975,189.796072 C139.374343,189.84158 139.276937,189.864564 139.172672,189.864564 C139.062766,189.864564 138.965056,189.84158 138.877711,189.796072 C138.790518,189.749491 138.746464,189.682685 138.746464,189.594886 L138.746464,185.822467 L137.783839,185.822467 C137.696799,185.822467 137.629575,185.78416 137.583845,185.707241 C137.538419,185.630015 137.515097,185.539306 137.515097,185.433273 C137.515097,185.341644 137.5372,185.255225 137.580948,185.174015 C137.624545,185.092806 137.691616,185.051588 137.783839,185.051588 L140.55434,185.051588 Z M134.809838,188.146136 L134.240189,186.124781 L133.670236,188.146136 L134.809838,188.146136 Z M132.956689,189.864564 C132.899678,189.864564 132.839924,189.85629 132.776663,189.838362 C132.713403,189.820894 132.655173,189.796991 132.602583,189.765886 C132.550755,189.735548 132.507159,189.697701 132.471946,189.653878 C132.437191,189.610056 132.419204,189.561943 132.419204,189.509386 C132.419204,189.500499 132.424234,189.478741 132.432618,189.443499 L133.696454,185.301806 C133.727399,185.201443 133.794927,185.127741 133.899498,185.081467 C134.004525,185.035346 134.118089,185.012515 134.240189,185.012515 C134.367015,185.012515 134.482713,185.035346 134.587283,185.081467 C134.692615,185.127741 134.759534,185.201443 134.790326,185.301806 L136.054772,189.443499 C136.063156,189.478741 136.067729,189.500499 136.067729,189.509386 C136.067729,189.561943 136.050199,189.60883 136.015596,189.650814 C135.980384,189.692185 135.936788,189.730031 135.884198,189.763128 C135.832065,189.796072 135.77414,189.820894 135.710879,189.838362 C135.647771,189.85629 135.587255,189.864564 135.530701,189.864564 C135.456466,189.864564 135.394272,189.85108 135.343969,189.824725 C135.293665,189.79883 135.259673,189.755007 135.242752,189.69341 L134.993369,188.818185 L133.493564,188.818185 L133.244638,189.69341 C133.227413,189.755007 133.193115,189.79883 133.143421,189.824725 C133.092508,189.85108 133.031077,189.864564 132.956689,189.864564 L132.956689,189.864564 Z M128.561691,185.802854 L128.561691,187.20487 L129.282097,187.20487 C129.496116,187.20487 129.66608,187.153386 129.792906,187.050265 C129.919427,186.947451 129.983145,186.766185 129.983145,186.507233 C129.983145,186.247975 129.919427,186.06579 129.792906,185.96083 C129.66608,185.855104 129.496116,185.802854 129.282097,185.802854 L128.561691,185.802854 Z M127.710343,185.315443 C127.710343,185.245265 127.73519,185.183515 127.785493,185.130959 C127.835797,185.078402 127.902258,185.051588 127.98503,185.051588 L129.282097,185.051588 C129.496116,185.051588 129.696872,185.074725 129.884824,185.120846 C130.072624,185.16712 130.236948,185.242814 130.37917,185.348386 C130.521239,185.453652 130.632364,185.593854 130.713002,185.769604 C130.794097,185.945507 130.83434,186.164773 130.83434,186.427862 C130.83434,186.805564 130.752635,187.10083 130.588768,187.313967 C130.424596,187.526185 130.22079,187.670064 129.97598,187.744991 L130.83434,189.344822 C130.847145,189.36229 130.856138,189.380677 130.860559,189.400596 C130.865132,189.420515 130.866809,189.436298 130.866809,189.449935 C130.866809,189.502491 130.850651,189.556273 130.81803,189.611281 C130.785104,189.66629 130.743794,189.714096 130.69349,189.756233 C130.643035,189.797757 130.586024,189.831467 130.523373,189.857822 C130.459503,189.884636 130.397615,189.89812 130.336641,189.89812 C130.275667,189.89812 130.219876,189.880652 130.169572,189.845104 C130.119116,189.809709 130.076587,189.759144 130.041832,189.69341 L129.11198,187.876459 L128.561691,187.876459 L128.561691,189.594886 C128.561691,189.682685 128.518095,189.749491 128.430749,189.796072 C128.343557,189.84158 128.245084,189.864564 128.135483,189.864564 C128.030913,189.864564 127.933507,189.84158 127.844181,189.796072 C127.754549,189.749491 127.710343,189.682685 127.710343,189.594886 L127.710343,185.315443 Z M121.160223,187.119064 L122.155622,187.119064 C122.242814,187.119064 122.309886,187.154612 122.355769,187.225096 C122.401804,187.294814 122.424669,187.374031 122.424669,187.461677 C122.424669,187.536298 122.402261,187.609846 122.359122,187.682015 C122.314916,187.754644 122.247997,187.791112 122.155622,187.791112 L121.160223,187.791112 L121.160223,189.114217 L123.013524,189.114217 C123.101479,189.114217 123.167788,189.15237 123.213671,189.229749 C123.259554,189.306669 123.282419,189.395386 123.282419,189.496209 C123.282419,189.58416 123.260164,189.667056 123.217177,189.746427 C123.173581,189.824725 123.105747,189.864564 123.013524,189.864564 L120.682188,189.864564 C120.586459,189.864564 120.499723,189.84158 120.423658,189.796072 C120.347136,189.749491 120.30918,189.682685 120.30918,189.594886 L120.30918,185.322185 C120.30918,185.23408 120.347136,185.16712 120.423658,185.120846 C120.499723,185.074725 120.586459,185.051588 120.682188,185.051588 L123.013524,185.051588 C123.105747,185.051588 123.173581,185.09158 123.217177,185.170338 C123.260164,185.249556 123.282419,185.33291 123.282419,185.420862 C123.282419,185.521685 123.259554,185.610402 123.213671,185.687322 C123.167788,185.764701 123.101479,185.802854 123.013524,185.802854 L121.160223,185.802854 L121.160223,187.119064 Z M117.361397,187.705459 L115.887354,187.705459 L115.887354,189.594886 C115.887354,189.682685 115.843147,189.749491 115.752906,189.796072 C115.663579,189.84158 115.566783,189.864564 115.462213,189.864564 C115.352613,189.864564 115.254749,189.84158 115.167557,189.796072 C115.080212,189.749491 115.036615,189.682685 115.036615,189.594886 L115.036615,185.315443 C115.036615,185.223354 115.080212,185.156548 115.167557,185.114564 C115.254749,185.073193 115.352613,185.051588 115.462213,185.051588 C115.566783,185.051588 115.663579,185.073193 115.752906,185.114564 C115.843147,185.156548 115.887354,185.223354 115.887354,185.315443 L115.887354,187.034023 L117.361397,187.034023 L117.361397,185.315443 C117.361397,185.223354 117.404994,185.156548 117.492339,185.114564 C117.579989,185.073193 117.678004,185.051588 117.786995,185.051588 C117.892175,185.051588 117.989581,185.073193 118.078298,185.114564 C118.167929,185.156548 118.21305,185.223354 118.21305,185.315443 L118.21305,189.594886 C118.21305,189.682685 118.167929,189.749491 118.078298,189.796072 C117.989581,189.84158 117.892175,189.864564 117.786995,189.864564 C117.678004,189.864564 117.579989,189.84158 117.492339,189.796072 C117.404994,189.749491 117.361397,189.682685 117.361397,189.594886 L117.361397,187.705459 Z M112.992618,185.051588 C113.084384,185.051588 113.151912,185.092806 113.195509,185.174015 C113.23941,185.255225 113.261056,185.341644 113.261056,185.433273 C113.261056,185.534402 113.238191,185.625265 113.192308,185.703717 C113.146425,185.782935 113.079811,185.822467 112.992618,185.822467 L112.036395,185.822467 L112.036395,189.594886 C112.036395,189.682685 111.991579,189.749491 111.902253,189.796072 C111.812621,189.84158 111.715368,189.864564 111.610797,189.864564 C111.501654,189.864564 111.403334,189.84158 111.315531,189.796072 C111.228948,189.749491 111.185352,189.682685 111.185352,189.594886 L111.185352,185.822467 L110.22227,185.822467 C110.134467,185.822467 110.068463,185.78416 110.02258,185.707241 C109.976697,185.630015 109.953832,185.539306 109.953832,185.433273 C109.953832,185.341644 109.975478,185.255225 110.019227,185.174015 C110.062823,185.092806 110.130504,185.051588 110.22227,185.051588 L112.992618,185.051588 Z M103.010735,185.322185 C103.010735,185.23408 103.048996,185.16712 103.125671,185.120846 C103.201736,185.074725 103.287709,185.051588 103.3842,185.051588 L105.670112,185.051588 C105.761877,185.051588 105.828339,185.09158 105.869953,185.170338 C105.910806,185.249556 105.931842,185.33291 105.931842,185.420862 C105.931842,185.521685 105.910196,185.610402 105.8666,185.687322 C105.822699,185.764701 105.757761,185.802854 105.670112,185.802854 L103.862236,185.802854 L103.862236,187.119064 L104.864189,187.119064 C104.951687,187.119064 105.016929,187.154612 105.06083,187.225096 C105.104731,187.294814 105.126529,187.374031 105.126529,187.461677 C105.126529,187.536298 105.105493,187.609846 105.064031,187.682015 C105.022569,187.754644 104.95626,187.791112 104.864189,187.791112 L103.862236,187.791112 L103.862236,189.594886 C103.862236,189.682685 103.81742,189.749491 103.727788,189.796072 C103.638462,189.84158 103.541361,189.864564 103.436333,189.864564 C103.327495,189.864564 103.229174,189.84158 103.141829,189.796072 C103.054484,189.749491 103.010735,189.682685 103.010735,189.594886 L103.010735,185.322185 Z M100.122707,186.55979 C100.122707,186.296548 100.061124,186.104096 99.9391757,185.983814 C99.8169231,185.863531 99.6481778,185.802854 99.4344644,185.802854 C99.2161778,185.802854 99.0481948,185.863531 98.9302103,185.983814 C98.8122258,186.104096 98.7530812,186.296548 98.7530812,186.55979 L98.7530812,188.396201 C98.7530812,188.660056 98.8122258,188.851588 98.9302103,188.97279 C99.0481948,189.093378 99.2161778,189.153596 99.4344644,189.153596 C99.6481778,189.153596 99.8169231,189.093378 99.9391757,188.97279 C100.061124,188.851588 100.122707,188.660056 100.122707,188.396201 L100.122707,186.55979 Z M99.4344644,189.904096 C99.2161778,189.904096 99.0143543,189.876975 98.8289936,189.82212 C98.6430233,189.766959 98.4817474,189.680999 98.3442512,189.561943 C98.2062978,189.443499 98.0986789,189.288588 98.0198701,189.097362 C97.9412138,188.906902 97.9017332,188.673233 97.9017332,188.396201 L97.9017332,186.55979 C97.9017332,186.28337 97.9412138,186.049548 98.0198701,185.858322 C98.0986789,185.667862 98.2062978,185.512644 98.3442512,185.394507 C98.4817474,185.275451 98.6430233,185.189338 98.8289936,185.134483 C99.0143543,185.079169 99.2161778,185.051588 99.4344644,185.051588 C99.6481778,185.051588 99.8495441,185.079169 100.037191,185.134483 C100.224991,185.189338 100.388706,185.275451 100.528336,185.394507 C100.668119,185.512644 100.777414,185.667862 100.855461,185.858322 C100.934422,186.049548 100.97375,186.28337 100.97375,186.55979 L100.97375,188.396201 C100.97375,188.673233 100.934422,188.906902 100.855461,189.097362 C100.777414,189.288588 100.668119,189.443499 100.528336,189.561943 C100.388706,189.680999 100.224991,189.766959 100.037191,189.82212 C99.8495441,189.876975 99.6481778,189.904096 99.4344644,189.904096 L99.4344644,189.904096 Z M91.1424728,185.802854 L91.1424728,187.20487 L91.8625745,187.20487 C92.0768977,187.20487 92.2473197,187.153386 92.3739929,187.050265 C92.5005138,186.947451 92.5639266,186.766185 92.5639266,186.507233 C92.5639266,186.247975 92.5005138,186.06579 92.3739929,185.96083 C92.2473197,185.855104 92.0768977,185.802854 91.8625745,185.802854 L91.1424728,185.802854 Z M90.2909725,185.315443 C90.2909725,185.245265 90.3161242,185.183515 90.3664277,185.130959 C90.4165787,185.078402 90.4830402,185.051588 90.5661171,185.051588 L91.8625745,185.051588 C92.0768977,185.051588 92.2776542,185.074725 92.4656062,185.120846 C92.6535582,185.16712 92.8178829,185.242814 92.9601044,185.348386 C93.1018687,185.453652 93.2132985,185.593854 93.2940889,185.769604 C93.3748793,185.945507 93.4151221,186.164773 93.4151221,186.427862 C93.4151221,186.805564 93.3335695,187.10083 93.1695498,187.313967 C93.0059873,187.526185 92.8018772,187.670064 92.5572195,187.744991 L93.4151221,189.344822 C93.4282315,189.36229 93.4370727,189.380677 93.4411884,189.400596 C93.4459139,189.420515 93.4478956,189.436298 93.4478956,189.449935 C93.4478956,189.502491 93.431585,189.556273 93.3988116,189.611281 C93.3658857,189.66629 93.3245759,189.714096 93.2744248,189.756233 C93.2241214,189.797757 93.1675681,189.831467 93.1043077,189.857822 C93.0410473,189.884636 92.9787015,189.89812 92.9180325,189.89812 C92.8559915,189.89812 92.8005053,189.880652 92.7505067,189.845104 C92.7002032,189.809709 92.6573691,189.759144 92.6230713,189.69341 L91.6926097,187.876459 L91.1424728,187.876459 L91.1424728,189.594886 C91.1424728,189.682685 91.0988765,189.749491 91.0115314,189.796072 C90.9240339,189.84158 90.8258659,189.864564 90.7170275,189.864564 C90.6118476,189.864564 90.5145942,189.84158 90.4255723,189.796072 C90.3354834,189.749491 90.2909725,189.682685 90.2909725,189.594886 L90.2909725,185.315443 Z M87.271698,188.146136 L86.7017445,186.124781 L86.1319435,188.146136 L87.271698,188.146136 Z M85.4180917,189.864564 C85.3610812,189.864564 85.3011743,189.85629 85.2377615,189.838362 C85.1745011,189.820894 85.1167283,189.796991 85.0641383,189.765886 C85.0121581,189.735548 84.967952,189.697701 84.9331969,189.653878 C84.8984418,189.610056 84.8809118,189.561943 84.8809118,189.509386 C84.8809118,189.500499 84.8854848,189.478741 84.8941736,189.443499 L86.1580099,185.301806 C86.1886493,185.201443 86.2561778,185.127741 86.3612054,185.081467 C86.4662329,185.035346 86.5793394,185.012515 86.7017445,185.012515 C86.8285702,185.012515 86.9439633,185.035346 87.0488384,185.081467 C87.1538659,185.127741 87.2212421,185.201443 87.251729,185.301806 L88.5160226,189.443499 C88.5245589,189.478741 88.529132,189.500499 88.529132,189.509386 C88.529132,189.561943 88.5117544,189.60883 88.4766944,189.650814 C88.4419393,189.692185 88.398343,189.730031 88.3456006,189.763128 C88.2933155,189.796072 88.2353903,189.820894 88.1719774,189.838362 C88.1085646,189.85629 88.0488102,189.864564 87.991952,189.864564 C87.9175639,189.864564 87.8555229,189.85108 87.8055243,189.824725 C87.7553733,189.79883 87.7212279,189.755007 87.7040028,189.69341 L87.4546196,188.818185 L85.9552717,188.818185 L85.7060409,189.69341 C85.6888158,189.755007 85.6548229,189.79883 85.6046718,189.824725 C85.5542159,189.85108 85.492175,189.864564 85.4180917,189.864564 L85.4180917,189.864564 Z M81.2851291,187.119064 L82.280223,187.119064 C82.3681778,187.119064 82.4346394,187.154612 82.4805222,187.225096 C82.5262526,187.294814 82.5492703,187.374031 82.5492703,187.461677 C82.5492703,187.536298 82.5274721,187.609846 82.4834185,187.682015 C82.4402795,187.754644 82.372446,187.791112 82.280223,187.791112 L81.2851291,187.791112 L81.2851291,189.114217 L83.1384305,189.114217 C83.225928,189.114217 83.292542,189.15237 83.3384248,189.229749 C83.3843077,189.306669 83.4071729,189.395386 83.4071729,189.496209 C83.4071729,189.58416 83.3856796,189.667056 83.3417784,189.746427 C83.2981821,189.824725 83.2300438,189.864564 83.1384305,189.864564 L80.8073987,189.864564 C80.71106,189.864564 80.6250868,189.84158 80.5484121,189.796072 C80.4720423,189.749491 80.4336288,189.682685 80.4336288,189.594886 L80.4336288,185.322185 C80.4336288,185.23408 80.4720423,185.16712 80.5484121,185.120846 C80.6250868,185.074725 80.71106,185.051588 80.8073987,185.051588 L83.1384305,185.051588 C83.2300438,185.051588 83.2981821,185.09158 83.3417784,185.170338 C83.3856796,185.249556 83.4071729,185.33291 83.4071729,185.420862 C83.4071729,185.521685 83.3843077,185.610402 83.3384248,185.687322 C83.292542,185.764701 83.225928,185.802854 83.1384305,185.802854 L81.2851291,185.802854 L81.2851291,187.119064 Z M76.4253578,187.935298 C76.4253578,187.900822 76.4186507,187.872015 76.4055413,187.850257 L75.049482,185.493031 C75.0363726,185.461927 75.0301228,185.433273 75.0301228,185.407685 C75.0301228,185.354822 75.0487198,185.306556 75.0860663,185.262427 C75.1229555,185.218604 75.169753,185.181523 75.2266112,185.151185 C75.2834693,185.119773 75.3444432,185.096177 75.4098377,185.078402 C75.4755371,185.060935 75.5365109,185.051588 75.5933691,185.051588 C75.6634891,185.051588 75.7166888,185.065225 75.7538829,185.09158 C75.7909245,185.117475 75.824765,185.162064 75.8554044,185.223354 L76.8509555,187.125959 L77.8535187,185.223354 C77.8840056,185.165894 77.9163218,185.123451 77.9513818,185.095104 C77.9859845,185.066451 78.0385745,185.051588 78.108542,185.051588 C78.1650953,185.051588 78.2266789,185.060935 78.2917685,185.078402 C78.3574679,185.096177 78.4185942,185.119773 78.4752999,185.151185 C78.5318532,185.181523 78.5792604,185.218604 78.6159972,185.262427 C78.6530388,185.306556 78.6717883,185.354822 78.6717883,185.407685 C78.6717883,185.416572 78.6705688,185.428523 78.6684347,185.443693 C78.6663006,185.458709 78.6609654,185.475564 78.6519718,185.493031 L77.3032294,187.850257 C77.2855469,187.876459 77.2767057,187.905112 77.2767057,187.935298 L77.2767057,189.594886 C77.2767057,189.682685 77.2328045,189.749491 77.1459167,189.796072 C77.0584192,189.84158 76.9600988,189.864564 76.8509555,189.864564 C76.7460805,189.864564 76.649132,189.84158 76.5595004,189.796072 C76.4700212,189.749491 76.4253578,189.682685 76.4253578,189.594886 L76.4253578,187.935298 Z" id="Fill-68" fill="#FEFEFE"></path>
                    <g id="Group-72">
                        <mask id="mask-8" fill="white">
                            <use xlink:href="#path-7"></use>
                        </mask>
                        <g id="Clip-71"></g>
                        <path d="M215.852931,0.114321774 L3.04869442e-05,0.114321774 L3.04869442e-05,2.80159597 L0.358861821,2.80159597 L99.8953812,78.2328218 C104.611559,81.8068137 110.876474,81.8069669 115.592956,78.2328218 L215.129323,2.80159597 L215.852931,2.80159597 L215.852931,0.114321774 Z" id="Fill-70" fill="#9B2724" mask="url(#mask-8)"></path>
                    </g>
                </g>
                <g id="Group-76">
                    <mask id="mask-10" fill="white">
                        <use xlink:href="#path-9"></use>
                    </mask>
                    <g id="Clip-75"></g>
                    <path d="M0,0.113578947 L99.6438331,75.234269 C104.348289,78.7807602 110.597277,78.7810643 115.301885,75.234269 L115.301885,75.234269 L214.945718,0.113578947 L0,0.113578947 Z" id="Fill-74" fill="url(#linearGradient-11)" mask="url(#mask-10)"></path>
                </g>
            </g>
        </g>
    </g>
</svg>